<?xml version="1.0" encoding="UTF-8" standalone="no"?>
<svg
   xmlns:dc="http://purl.org/dc/elements/1.1/"
   xmlns:cc="http://creativecommons.org/ns#"
   xmlns:rdf="http://www.w3.org/1999/02/22-rdf-syntax-ns#"
   xmlns:svg="http://www.w3.org/2000/svg"
   xmlns="http://www.w3.org/2000/svg"
   xmlns:sodipodi="http://sodipodi.sourceforge.net/DTD/sodipodi-0.dtd"
   xmlns:inkscape="http://www.inkscape.org/namespaces/inkscape"
   version="1.1"
   width="24"
   height="24"
   viewBox="0 0 24 24"
   id="svg4"
   sodipodi:docname="category-blinder1.svg"
   inkscape:version="0.92.1 unknown">
  <metadata
     id="metadata10">
    <rdf:RDF>
      <cc:Work
         rdf:about="">
        <dc:format>image/svg+xml</dc:format>
        <dc:type
           rdf:resource="http://purl.org/dc/dcmitype/StillImage" />
        <dc:title></dc:title>
      </cc:Work>
    </rdf:RDF>
  </metadata>
  <defs
     id="defs8" />
  <sodipodi:namedview
     pagecolor="#ffffff"
     bordercolor="#666666"
     borderopacity="1"
     objecttolerance="10"
     gridtolerance="10"
     guidetolerance="10"
     inkscape:pageopacity="0"
     inkscape:pageshadow="2"
     inkscape:window-width="640"
     inkscape:window-height="480"
     id="namedview6"
     showgrid="false"
     inkscape:zoom="3.90625"
     inkscape:cx="-1.9100933"
     inkscape:cy="9.6258324"
     inkscape:current-layer="svg4"
     inkscape:snap-center="true">
    <inkscape:grid
       type="xygrid"
       id="grid4487"
       empspacing="4"
       spacingx="0.5"
       spacingy="0.5" />
    <inkscape:grid
       type="xygrid"
       id="grid4495"
       empspacing="4" />
  </sodipodi:namedview>
  <path
     d="M 9.545127,22.142857 H 7.5016077 c -1.1035005,0 -2.0707664,-0.858278 -2.207001,-1.948155 L 4.9540201,18.157994 c -0.074929,-0.578997 0.088552,-1.123936 0.4427625,-1.519016 0.3542101,-0.395081 0.8719017,-0.626679 1.423652,-0.626679 h 4.0870394 c 0.565373,0 1.076253,0.23841 1.403216,0.653926 0.07493,0.102175 0.143046,0.211164 0.197541,0.333775 0.292904,-0.06131 0.59262,-0.06131 0.878713,0 0.05449,-0.122611 0.122611,-0.2316 0.204352,-0.333775 0.320151,-0.415516 0.831031,-0.653926 1.403217,-0.653926 h 4.087039 c 0.55175,0 1.069441,0.231598 1.423652,0.626679 0.347398,0.39508 0.510879,0.940019 0.442762,1.491769 l -0.347398,2.091202 c -0.129423,1.06263 -1.1035,1.920908 -2.200189,1.920908 h -2.04352 c -1.06263,0 -2.098013,-0.810596 -2.356859,-1.839167 l -0.613056,-1.84598 c -0.258846,-0.190728 -0.619868,-0.190728 -0.878713,0 l -0.62668,1.893662 c -0.245222,0.987701 -1.273794,1.791485 -2.336424,1.791485 z"
     id="path2"
     inkscape:connector-curvature="0"
     style="stroke-width:0.68117321" />
  <path
     style="stroke-width:0.80016071"
     d="M 5.6734832,2.5330942 8.4180345,5.2776454 5.2173916,8.4782883 2.4728403,5.733737 c -0.6241253,-0.6241254 -0.6241253,-1.6403295 0,-2.2644549 L 3.4090284,2.5330942 c 0.6241253,-0.6241253 1.6403295,-0.6241253 2.2644548,0"
     id="path4537"
     inkscape:connector-curvature="0" />
  <path
     style="stroke-width:0.80016071"
     d="M 10.954744,5.3578623 11.522858,5.9259765 5.8657227,11.583113 5.2976086,11.014999 4.6094704,8.2144361 8.1541824,4.6697241 Z"
     id="path4524"
     inkscape:connector-curvature="0" />
  <path
     style="opacity:1;fill-opacity:1;fill-rule:nonzero;stroke:none;stroke-width:1.01946497;stroke-miterlimit:4;stroke-dasharray:none;stroke-opacity:1;paint-order:stroke fill markers"
     d="M 7.8535156 11.886719 L 6.8867188 12.146484 L 7.7871094 15.5 L 8.8222656 15.5 L 7.8535156 11.886719 z M 8.234375 17.167969 L 8.4414062 17.941406 L 9.40625 17.683594 L 9.2675781 17.167969 L 8.234375 17.167969 z "
     id="rect4543" />
  <rect
     style="opacity:1;fill-opacity:1;fill-rule:nonzero;stroke:none;stroke-width:1;stroke-miterlimit:4;stroke-dasharray:none;stroke-opacity:1;paint-order:stroke fill markers"
     id="rect4545"
     width="6"
     height="1"
     x="13.515216"
     y="3.5092056"
     inkscape:transform-center-x="-2.4148148"
     transform="rotate(15)"
     inkscape:transform-center-y="0.64704761" />
</svg>
