<?xml version="1.0" encoding="UTF-8" standalone="no"?>
<svg
   xmlns:dc="http://purl.org/dc/elements/1.1/"
   xmlns:cc="http://creativecommons.org/ns#"
   xmlns:rdf="http://www.w3.org/1999/02/22-rdf-syntax-ns#"
   xmlns:svg="http://www.w3.org/2000/svg"
   xmlns="http://www.w3.org/2000/svg"
   xmlns:sodipodi="http://sodipodi.sourceforge.net/DTD/sodipodi-0.dtd"
   xmlns:inkscape="http://www.inkscape.org/namespaces/inkscape"
   inkscape:version="0.92.1 unknown"
   xml:space="preserve"
   height="24"
   viewBox="0 0 96 96"
   width="24"
   version="1.1"
   sodipodi:docname="category-moving-head.svg"
   id="svg54"><metadata
     id="metadata56"><rdf:RDF><cc:Work
         rdf:about=""><dc:format>image/svg+xml</dc:format><dc:type
           rdf:resource="http://purl.org/dc/dcmitype/StillImage" /></cc:Work></rdf:RDF></metadata><defs
     id="defs14"><clipPath
       id="d"
       clipPathUnits="userSpaceOnUse"><path
         inkscape:connector-curvature="0"
         d="m0 72h72v-72h-72z"
         id="path2" /></clipPath><clipPath
       id="c"
       clipPathUnits="userSpaceOnUse"><path
         inkscape:connector-curvature="0"
         d="m0 72h72v-72h-72z"
         id="path5" /></clipPath><clipPath
       id="b"
       clipPathUnits="userSpaceOnUse"><path
         inkscape:connector-curvature="0"
         d="m0 72h72v-72h-72z"
         id="path8" /></clipPath><clipPath
       id="a"
       clipPathUnits="userSpaceOnUse"><path
         inkscape:connector-curvature="0"
         d="m0 72h72v-72h-72z"
         id="path11" /></clipPath></defs><sodipodi:namedview
     bordercolor="#666666"
     inkscape:pageshadow="2"
     guidetolerance="10"
     pagecolor="#ffffff"
     gridtolerance="10"
     inkscape:zoom="8.0433396"
     objecttolerance="10"
     borderopacity="1"
     inkscape:current-layer="g52"
     inkscape:cx="18.489873"
     inkscape:cy="2.9816948"
     inkscape:window-width="640"
     showgrid="false"
     inkscape:pageopacity="0"
     inkscape:window-height="480"
     id="namedview18"
     inkscape:snap-smooth-nodes="true"
     inkscape:snap-center="true"><inkscape:grid
       opacity=".054902"
       color="#0000ff"
       spacingy="4"
       spacingx="4"
       type="xygrid"
       empspacing="4"
       id="grid16" /></sodipodi:namedview><g
     inkscape:label="template"
     inkscape:groupmode="layer"
     transform="matrix(1.3333 0 0 -1.3333 0 -192)"
     id="g52"><path
       style="fill-opacity:1"
       id="path28"
       inkscape:connector-curvature="0"
       d="m 18,-198.00121 h 36 c 3.314,0 6.0015,-2.68989 6.00075,-6.00134 C 60,-207.314 57.314,-210 54,-210 H 18 c -3.314,0 -6,2.686 -5.99985,5.99745 1.5e-4,3.31145 2.68585,6.00134 5.99985,6.00134 z"
       sodipodi:nodetypes="sscsscs" /><path
       style="opacity:1;fill-opacity:1;fill-rule:nonzero;stroke:none;stroke-width:1.11803401;stroke-opacity:1;paint-order:stroke fill markers"
       d="M 18 1.7714844 C 15.319171 2.3014011 12.761089 3.1246373 10.332031 4.2597656 C 7.92951 5.3824676 5.1597852 7.3623577 3.4550781 10.794922 L 5.1523438 14.417969 C 6.4687628 14.616724 7.7648588 14.673358 9 14.609375 L 9 8 C 8.9998997 5.9942668 10.156698 5.0001033 12 5 C 13.843302 4.9999 14.999911 5.9999967 15 8 L 15 13.099609 C 17.239743 12.007022 19.396914 10.644501 21.394531 9.015625 L 18 1.7714844 z "
       transform="matrix(3.000075,0,0,-3.000075,0,-144.0036)"
       id="rect4500" /><path
       sodipodi:nodetypes="sccccscs"
       d="m 42.00105,-168.00421 0.0012,-27.00007 -3.001275,-3.00067 h -6.00015 l -2.997365,3.00067 -0.0012,27.00007 c -1.47e-4,3.314 2.686,6 5.99745,5.99985 3.31145,-1.5e-4 6.001193,-2.68585 6.00134,-5.99985 z"
       inkscape:connector-curvature="0"
       id="path4498"
       style="fill-opacity:1" /></g><g
     inkscape:groupmode="layer"
     id="layer1"
     inkscape:label="svg" /></svg>