<svg xmlns="http://www.w3.org/2000/svg" version="1.1" width="24" height="24" viewBox="0 0 24 24"><path d="m4.541 2.0645c-.4101 0-.8207.1566-1.1328.4687l-.9355.9356c-.6242.6241-.6242 1.6414 0 2.2656l2.3085 2.3086-.1718.1718.6875 2.8012.5683.568 5.6578-5.6582-.568-.5684-2.8007-.6875-.1719.1719-2.3086-2.3086c-.3120-.3121-.7227-.4687-1.1328-.4687zm7.605 4.8222l-.259.9668 5.797 1.5527.257-.9648-5.795-1.5547zm-4.2925 5.0003l-.9668.259.9004 3.354h1.0352l-.9688-3.613zm-1.0332 4.125c-.5517 0-1.0696.232-1.4238.627s-.5183.940-.4434 1.519l.3418 2.037c.1363 1.09 1.1036 1.948 2.2071 1.948h2.0429c1.0631 0 2.0911-.804 2.3361-1.791l.627-1.895c.259-.191.620-.191.879 0l.613 1.846c.259 1.028 1.295 1.84 2.357 1.84h2.043c1.097 0 2.07-.858 2.2-1.92l.347-2.092c.068-.552-.094-1.097-.441-1.492-.354-.395-.872-.627-1.424-.627h-4.088c-.572 0-1.082.238-1.402.654-.082.102-.151.211-.205.334-.286-.061-.586-.061-.879 0-.055-.123-.123-.232-.197-.334-.327-.416-.837-.654-1.403-.654h-4.0877z"/></svg>
