<?xml version="1.0" encoding="UTF-8" standalone="no"?>
<svg
   xmlns:dc="http://purl.org/dc/elements/1.1/"
   xmlns:cc="http://creativecommons.org/ns#"
   xmlns:rdf="http://www.w3.org/1999/02/22-rdf-syntax-ns#"
   xmlns:svg="http://www.w3.org/2000/svg"
   xmlns="http://www.w3.org/2000/svg"
   xmlns:sodipodi="http://sodipodi.sourceforge.net/DTD/sodipodi-0.dtd"
   xmlns:inkscape="http://www.inkscape.org/namespaces/inkscape"
   version="1.1"
   width="24"
   height="24"
   viewBox="0 0 24 24"
   id="svg4"
   sodipodi:docname="weather-fog.svg"
   inkscape:version="0.92.1 unknown">
  <metadata
     id="metadata10">
    <rdf:RDF>
      <cc:Work
         rdf:about="">
        <dc:format>image/svg+xml</dc:format>
        <dc:type
           rdf:resource="http://purl.org/dc/dcmitype/StillImage" />
        <dc:title></dc:title>
      </cc:Work>
    </rdf:RDF>
  </metadata>
  <defs
     id="defs8" />
  <sodipodi:namedview
     pagecolor="#ffffff"
     bordercolor="#666666"
     borderopacity="1"
     objecttolerance="10"
     gridtolerance="10"
     guidetolerance="10"
     inkscape:pageopacity="0"
     inkscape:pageshadow="2"
     inkscape:window-width="640"
     inkscape:window-height="480"
     id="namedview6"
     showgrid="false"
     inkscape:snap-smooth-nodes="true"
     inkscape:zoom="1.953125"
     inkscape:cx="52.23418"
     inkscape:cy="37.119323"
     inkscape:current-layer="svg4">
    <inkscape:grid
       type="xygrid"
       id="grid4538" />
  </sodipodi:namedview>
  <path
     style="stroke-width:0.90909094"
     d="M 12.091797 2.5175781 C 9.6372518 2.5175781 7.5458096 4.0179329 6.6367188 6.1542969 A 4.5454546 4.5454546 0 0 0 2.0917969 10.699219 A 4.5454546 4.5454546 0 0 0 6.6367188 15.246094 L 7.9667969 15.246094 C 7.6780924 14.684095 7.4968312 14.070857 7.4824219 13.427734 L 6.6367188 13.427734 A 2.7272728 2.7272728 0 0 1 3.9082031 10.699219 A 2.7272728 2.7272728 0 0 1 6.6367188 7.9726562 C 6.9730823 7.9726563 7.2996094 8.0354404 7.5996094 8.1445312 C 7.9541548 5.989985 9.8190698 4.3359375 12.091797 4.3359375 A 4.5454546 4.5454546 0 0 1 16.414062 7.484375 C 16.549538 7.4759381 16.68496 7.4728378 16.822266 7.4785156 C 17.265114 7.5170781 17.62983 7.5748063 17.955078 7.6425781 C 17.554984 4.7513569 15.086976 2.5175781 12.091797 2.5175781 z M 20.128906 8.3867188 L 19.21875 9.9628906 A 1.8181818 1.8181818 0 0 1 20.273438 11.609375 A 1.8181818 1.8181818 0 0 1 19.914062 12.689453 C 20.464318 12.954354 20.954971 13.325622 21.363281 13.783203 A 3.6363637 3.6363637 0 0 0 22.091797 11.609375 A 3.6363637 3.6363637 0 0 0 20.128906 8.3867188 z "
     id="path4527" />
  <path
     d="m 15,15 c 0.954546,-1.653321 3.127768,-2.235634 4.781089,-1.281089 1.653322,0.954546 2.235635,3.127768 1.281089,4.781089 z m 0,0 c -0.954545,1.653321 -3.127767,2.235634 -4.781089,1.281089 C 8.5655903,15.326543 7.983277,13.153321 8.9378226,11.5 Z m 0,0 C 13.346679,14.045455 12.764366,11.872232 13.718911,10.218911 14.673457,8.5655899 16.846679,7.9832767 18.5,8.9378222 Z m 0,0 c 1.653322,0.954546 2.235635,3.127767 1.281089,4.781089 C 15.326544,21.43441 13.153322,22.016723 11.5,21.062178 Z"
     id="path2-3"
     inkscape:connector-curvature="0"
     style="fill:#000000;stroke-width:0.63636363" />
</svg>
