<?xml version="1.0" encoding="UTF-8" standalone="no"?>
<svg
   xmlns:dc="http://purl.org/dc/elements/1.1/"
   xmlns:cc="http://creativecommons.org/ns#"
   xmlns:rdf="http://www.w3.org/1999/02/22-rdf-syntax-ns#"
   xmlns:svg="http://www.w3.org/2000/svg"
   xmlns="http://www.w3.org/2000/svg"
   xmlns:sodipodi="http://sodipodi.sourceforge.net/DTD/sodipodi-0.dtd"
   xmlns:inkscape="http://www.inkscape.org/namespaces/inkscape"
   inkscape:version="0.92.1 unknown"
   xml:space="preserve"
   height="24"
   viewBox="0 0 96 96"
   width="24"
   version="1.1"
   sodipodi:docname="category-flower.svg"
   id="svg54"><metadata
     id="metadata56"><rdf:RDF><cc:Work
         rdf:about=""><dc:format>image/svg+xml</dc:format><dc:type
           rdf:resource="http://purl.org/dc/dcmitype/StillImage" /><dc:title></dc:title></cc:Work></rdf:RDF></metadata><defs
     id="defs14"><clipPath
       id="d"
       clipPathUnits="userSpaceOnUse"><path
         inkscape:connector-curvature="0"
         d="m0 72h72v-72h-72z"
         id="path2" /></clipPath><clipPath
       id="c"
       clipPathUnits="userSpaceOnUse"><path
         inkscape:connector-curvature="0"
         d="m0 72h72v-72h-72z"
         id="path5" /></clipPath><clipPath
       id="b"
       clipPathUnits="userSpaceOnUse"><path
         inkscape:connector-curvature="0"
         d="m0 72h72v-72h-72z"
         id="path8" /></clipPath><clipPath
       id="a"
       clipPathUnits="userSpaceOnUse"><path
         inkscape:connector-curvature="0"
         d="m0 72h72v-72h-72z"
         id="path11" /></clipPath></defs><sodipodi:namedview
     bordercolor="#666666"
     inkscape:pageshadow="2"
     guidetolerance="10"
     pagecolor="#ffffff"
     gridtolerance="10"
     inkscape:zoom="4.0216698"
     objecttolerance="10"
     borderopacity="1"
     inkscape:current-layer="g52"
     inkscape:cx="12.485762"
     inkscape:cy="21.958132"
     inkscape:window-width="640"
     showgrid="false"
     inkscape:pageopacity="0"
     inkscape:window-height="480"
     id="namedview18"><inkscape:grid
       opacity=".054902"
       color="#0000ff"
       spacingy="4"
       spacingx="4"
       type="xygrid"
       empspacing="4"
       id="grid16" /></sodipodi:namedview><g
     inkscape:label="template"
     inkscape:groupmode="layer"
     transform="matrix(1.3333 0 0 -1.3333 0 -192)"
     id="g52"><path
       style="fill-opacity:1;stroke-width:0.333325"
       d="m 5,2.9980469 c -0.338958,0 -0.6538744,0.093408 -0.9335938,0.2421875 L 12,8 6.2832031,2.9980469 Z M 12,8 11.166016,2.9980469 H 8.6660156 Z m 0,0 9,-2.4550781 V 4.9980469 C 21,4.1328773 20.446571,3.4037791 19.677734,3.125 Z m 0,0 9,1.4433594 V 8 Z m 0,0 8.837891,11.783203 C 20.940832,19.542193 21,19.276713 21,18.998047 v -2.650391 z m 0,0 6,12.998047 h 1 c 0.138737,0 0.273523,-0.01413 0.404297,-0.04102 z m 0,0 2,12.998047 h 2 z m 0,0 -1,12.998047 h 2 z m 0,0 -9,10.800781 v 0.197266 c 0,0.684898 0.3442864,1.287986 0.8691406,1.648437 z m 0,0 -9,5.726562 V 17 Z m 0,0 H 3 v 1.8007812 z"
       transform="matrix(3.000075,0,0,-3.000075,0,-144.0036)"
       id="path44"
       inkscape:connector-curvature="0"
       sodipodi:nodetypes="scccsccccccsccccccccsccccsccccccccccccscccccccccc" /></g><g
     inkscape:groupmode="layer"
     id="layer1"
     inkscape:label="svg" /></svg>