<?xml version="1.0" encoding="UTF-8" standalone="no"?>
<svg
   xmlns:dc="http://purl.org/dc/elements/1.1/"
   xmlns:cc="http://creativecommons.org/ns#"
   xmlns:rdf="http://www.w3.org/1999/02/22-rdf-syntax-ns#"
   xmlns:svg="http://www.w3.org/2000/svg"
   xmlns="http://www.w3.org/2000/svg"
   xmlns:sodipodi="http://sodipodi.sourceforge.net/DTD/sodipodi-0.dtd"
   xmlns:inkscape="http://www.inkscape.org/namespaces/inkscape"
   xml:space="preserve"
   height="24"
   width="24"
   version="1.1"
   viewBox="0 0 96 96"
   id="svg20"
   sodipodi:docname="category-smoke.svg"
   inkscape:version="0.92.1 unknown"><metadata
     id="metadata26"><rdf:RDF><cc:Work
         rdf:about=""><dc:format>image/svg+xml</dc:format><dc:type
           rdf:resource="http://purl.org/dc/dcmitype/StillImage" /><dc:title /></cc:Work></rdf:RDF></metadata><defs
     id="defs24"><clipPath
       clipPathUnits="userSpaceOnUse"
       id="d"><path
         id="path4601"
         d="m0 72h72v-72h-72z"
         inkscape:connector-curvature="0" /></clipPath><clipPath
       clipPathUnits="userSpaceOnUse"
       id="c"><path
         id="path4604"
         d="m0 72h72v-72h-72z"
         inkscape:connector-curvature="0" /></clipPath><clipPath
       clipPathUnits="userSpaceOnUse"
       id="b"><path
         id="path4607"
         d="m0 72h72v-72h-72z"
         inkscape:connector-curvature="0" /></clipPath><clipPath
       clipPathUnits="userSpaceOnUse"
       id="a"><path
         id="path4610"
         d="m0 72h72v-72h-72z"
         inkscape:connector-curvature="0" /></clipPath><clipPath
       clipPathUnits="userSpaceOnUse"
       id="d-3"><path
         id="path4585"
         d="m0 72h72v-72h-72z"
         inkscape:connector-curvature="0" /></clipPath><clipPath
       clipPathUnits="userSpaceOnUse"
       id="c-6"><path
         id="path4588"
         d="m0 72h72v-72h-72z"
         inkscape:connector-curvature="0" /></clipPath><clipPath
       clipPathUnits="userSpaceOnUse"
       id="b-7"><path
         id="path4591"
         d="m0 72h72v-72h-72z"
         inkscape:connector-curvature="0" /></clipPath><clipPath
       clipPathUnits="userSpaceOnUse"
       id="a-5"><path
         id="path4594"
         d="m0 72h72v-72h-72z"
         inkscape:connector-curvature="0" /></clipPath></defs><sodipodi:namedview
     pagecolor="#ffffff"
     bordercolor="#666666"
     borderopacity="1"
     objecttolerance="10"
     gridtolerance="10"
     guidetolerance="10"
     inkscape:pageopacity="0"
     inkscape:pageshadow="2"
     inkscape:window-width="640"
     inkscape:window-height="480"
     id="namedview22"
     showgrid="false"
     inkscape:snap-bbox="false"
     inkscape:zoom="11.313709"
     inkscape:cx="28.621061"
     inkscape:cy="22.26723"
     inkscape:current-layer="svg20"
     inkscape:snap-smooth-nodes="true"
     showguides="false"><inkscape:grid
       type="xygrid"
       id="grid4512"
       empspacing="4" /><inkscape:grid
       type="xygrid"
       id="grid4514"
       spacingx="1"
       spacingy="1"
       empspacing="4"
       color="#ff0004"
       opacity="0.1254902"
       empcolor="#ff0500"
       empopacity="0.25098039" /></sodipodi:namedview><g
     fill-opacity=".17121"
     fill="#b8b8b8"
     display="none"
     id="g10"><path
       d="m60-204h-48c-3.314 0-6 2.686-6 6v36c0 3.314 2.686 6 6 6h48c3.314 0 6-2.686 6-6v-36c0-3.314-2.686-6-6-6"
       transform="matrix(1.3333,0,0,-1.3333,0,-192)"
       id="path2" /><path
       d="m12-204v48c0 3.314 2.686 6 6 6h36c3.314 0 6-2.686 6-6v-48c0-3.314-2.686-6-6-6h-36c-3.314 0-6 2.686-6 6"
       transform="matrix(1.3333,0,0,-1.3333,0,-192)"
       id="path4" /><path
       d="m66-180c0-16.569-13.431-30-30-30s-30 13.431-30 30 13.431 30 30 30 30-13.431 30-30"
       transform="matrix(1.3333,0,0,-1.3333,0,-192)"
       id="path6" /><path
       d="m59.25-208.5h-42c-3.314 0-6 2.686-6 6v42c0 3.314 2.686 6 6 6h42c3.314 0 6-2.686 6-6v-42c0-3.314-2.686-6-6-6"
       transform="matrix(1.3333,0,0,-1.3333,0,-192)"
       id="path8" /></g><path
     style="stroke-width:1.33329999;paint-order:stroke fill markers;"
     d="m 8,64.007812 v -7.992188 -16 -8.007812 L 14,32 c 4,0 6,2 6,6 v 4.015612 l 8,-2 v 16 l -8,-2 V 58 c 0,4 -2,6 -6,6 z"
     id="rect12"
     inkscape:connector-curvature="0"
     sodipodi:nodetypes="ccccccccccccc" /><path
     style="color:#000000;font-style:normal;font-variant:normal;font-weight:normal;font-stretch:normal;font-size:medium;line-height:normal;font-family:sans-serif;font-variant-ligatures:normal;font-variant-position:normal;font-variant-caps:normal;font-variant-numeric:normal;font-variant-alternates:normal;font-feature-settings:normal;text-indent:0;text-align:start;text-decoration:none;text-decoration-line:none;text-decoration-style:solid;text-decoration-color:#000000;letter-spacing:normal;word-spacing:normal;text-transform:none;writing-mode:lr-tb;direction:ltr;text-orientation:mixed;dominant-baseline:auto;baseline-shift:baseline;text-anchor:start;white-space:normal;shape-padding:0;clip-rule:nonzero;display:inline;overflow:visible;visibility:visible;opacity:1;isolation:auto;mix-blend-mode:normal;color-interpolation:sRGB;color-interpolation-filters:linearRGB;solid-color:#000000;solid-opacity:1;vector-effect:none;fill-opacity:1;fill-rule:nonzero;stroke:none;stroke-width:6;stroke-linecap:butt;stroke-linejoin:miter;stroke-miterlimit:4;stroke-dasharray:none;stroke-dashoffset:0;stroke-opacity:1;paint-order:stroke fill markers;color-rendering:auto;image-rendering:auto;shape-rendering:auto;text-rendering:auto;enable-background:accumulate"
     d="m 32,50 v 6 c 0.25,0 0.58217,0.08777 1.367188,0.519531 0.785017,0.43176 1.902086,1.166681 3.402343,1.841797 2.576314,1.159342 6.320986,1.827176 11.414063,0.994141 1.322076,3.374998 2.907779,6.477841 5.980468,8.357422 3.434794,2.101082 7.966479,2.16637 13.806641,0.630859 4.278759,5.004863 8.591336,7.001383 12.275391,7.044922 C 84.324546,75.436872 87.425398,74 88,74 v -6 c -3.425398,0 -5.449593,1.415074 -7.683594,1.388672 -2.234001,-0.0264 -4.884055,-0.796233 -8.914062,-6.185547 l -1.267578,-1.695313 -2.023438,0.626954 C 62.033599,64.020274 59.0375,63.661648 57.294922,62.595703 55.552343,61.529758 54.210098,59.06914 52.839844,55.035156 l -0.886719,-2.615234 -2.681641,0.669922 C 43.766067,54.466198 41.229955,53.788441 39.230469,52.888672 38.230726,52.438788 37.347795,51.861209 36.257812,51.261719 35.16783,50.662228 33.75,50 32,50 Z"
     id="path4669"
     inkscape:connector-curvature="0" /><path
     style="color:#000000;font-style:normal;font-variant:normal;font-weight:normal;font-stretch:normal;font-size:medium;line-height:normal;font-family:sans-serif;font-variant-ligatures:normal;font-variant-position:normal;font-variant-caps:normal;font-variant-numeric:normal;font-variant-alternates:normal;font-feature-settings:normal;text-indent:0;text-align:start;text-decoration:none;text-decoration-line:none;text-decoration-style:solid;text-decoration-color:#000000;letter-spacing:normal;word-spacing:normal;text-transform:none;writing-mode:lr-tb;direction:ltr;text-orientation:mixed;dominant-baseline:auto;baseline-shift:baseline;text-anchor:start;white-space:normal;shape-padding:0;clip-rule:nonzero;display:inline;overflow:visible;visibility:visible;opacity:1;isolation:auto;mix-blend-mode:normal;color-interpolation:sRGB;color-interpolation-filters:linearRGB;solid-color:#000000;solid-opacity:1;vector-effect:none;fill-opacity:1;fill-rule:nonzero;stroke:none;stroke-width:6;stroke-linecap:butt;stroke-linejoin:miter;stroke-miterlimit:4;stroke-dasharray:none;stroke-dashoffset:0;stroke-opacity:1;paint-order:stroke fill markers;color-rendering:auto;image-rendering:auto;shape-rendering:auto;text-rendering:auto;enable-background:accumulate"
     d="m 74.541016,11.904297 c -4.905461,0.470428 -10.021998,3.728111 -13.296875,10.117187 -3.883462,-0.179907 -7.291115,0.237697 -9.908203,1.982422 -3.103385,2.068924 -4.73593,5.577291 -5.306641,9.572266 -0.407682,2.853772 -1.688087,4.109261 -3.582031,5.083984 C 40.553322,39.63488 37.980786,40 36,40 h -4 v 6 h 4 c 2.616304,0 6.005834,-0.365391 9.193359,-2.005859 3.187526,-1.640469 6.107993,-4.884854 6.777344,-9.570313 0.429289,-3.005025 1.296744,-4.496658 2.693359,-5.427734 1.396616,-0.931077 3.879643,-1.471924 8.003907,-1.013672 l 2.257812,0.25 0.853516,-2.105469 c 2.494207,-6.15142 6.003476,-7.93042 9.335937,-8.25 3.332461,-0.319579 6.664562,1.482304 7.486328,2.576172 l 0.160157,0.214844 0.197265,0.183593 C 84.356276,22.148357 86.156899,23.007024 88.011719,23 l -0.02344,-6 c -0.14518,5.5e-4 -0.344557,0.01248 -0.947265,-0.546875 l 0.357422,0.396484 C 84.785115,13.370968 79.938806,11.386655 74.541016,11.904297 Z"
     id="path4671"
     inkscape:connector-curvature="0" /></svg>