<svg xmlns="http://www.w3.org/2000/svg" version="1.1" width="24" height="24" viewBox="0 0 24 24"><path d="M 4 2 C 2.8954305 2 2 2.8954304 2 4 C 2 5.1045696 2.8954305 6 4 6 C 5.1045694 6 6 5.1045696 6 4 C 6 2.894 5.1 2 4 2 z M 9.3339844 2 C 8.2294149 2 7.3339844 2.8954304 7.3339844 4 C 7.3339844 5.1045696 8.2294149 6 9.3339844 6 C 10.438553 6 11.333984 5.1045696 11.333984 4 C 11.333984 2.894 10.433984 2 9.3339844 2 z M 14.666016 2 C 13.561447 2 12.666016 2.8954304 12.666016 4 C 12.666016 5.1045696 13.561447 6 14.666016 6 C 15.770586 6 16.666016 5.1045696 16.666016 4 C 16.666016 2.894 15.766016 2 14.666016 2 z M 20 2 C 18.89543 2 18 2.8954304 18 4 C 18 5.1045696 18.89543 6 20 6 C 21.10457 6 22 5.1045696 22 4 C 22 2.894 21.1 2 20 2 z M 4 7.3339844 C 2.8954305 7.3339844 2 8.2294148 2 9.3339844 C 2 10.438554 2.8954305 11.333984 4 11.333984 C 5.1045694 11.333984 6 10.438554 6 9.3339844 C 6 8.2279844 5.1 7.3339844 4 7.3339844 z M 9.3339844 7.3339844 C 8.2294154 7.3339844 7.3339844 8.2294146 7.3339844 9.3339844 C 7.3339844 10.438554 8.2294154 11.333984 9.3339844 11.333984 C 10.438553 11.333984 11.333984 10.438554 11.333984 9.3339844 C 11.333984 8.2279842 10.433984 7.3339844 9.3339844 7.3339844 z M 14.666016 7.3339844 C 13.561446 7.3339844 12.666016 8.2294146 12.666016 9.3339844 C 12.666016 10.438555 13.561446 11.333984 14.666016 11.333984 C 15.770585 11.333984 16.666016 10.438555 16.666016 9.3339844 C 16.666016 8.2279842 15.766016 7.3339844 14.666016 7.3339844 z M 20 7.3339844 C 18.89543 7.3339844 18 8.2294144 18 9.3339844 C 18 10.438554 18.89543 11.333984 20 11.333984 C 21.104569 11.333984 22 10.438554 22 9.3339844 C 22 8.2279844 21.1 7.3339844 20 7.3339844 z M 4 12.666016 C 2.8954305 12.666016 2 13.561447 2 14.666016 C 2 15.770586 2.8954305 16.666016 4 16.666016 C 5.1045694 16.666016 6 15.770586 6 14.666016 C 6 13.560016 5.1 12.666016 4 12.666016 z M 9.3339844 12.666016 C 8.2294154 12.666016 7.3339844 13.561447 7.3339844 14.666016 C 7.3339844 15.770586 8.2294154 16.666016 9.3339844 16.666016 C 10.438553 16.666016 11.333984 15.770586 11.333984 14.666016 C 11.333984 13.560016 10.433984 12.666016 9.3339844 12.666016 z M 14.666016 12.666016 C 13.561446 12.666016 12.666016 13.561447 12.666016 14.666016 C 12.666016 15.770586 13.561446 16.666016 14.666016 16.666016 C 15.770585 16.666016 16.666016 15.770586 16.666016 14.666016 C 16.666016 13.560016 15.766016 12.666016 14.666016 12.666016 z M 20 12.666016 C 18.89543 12.666016 18 13.561447 18 14.666016 C 18 15.770586 18.89543 16.666016 20 16.666016 C 21.104569 16.666016 22 15.770586 22 14.666016 C 22 13.560016 21.1 12.666016 20 12.666016 z M 4 18 C 2.8954305 18 2 18.89543 2 20 C 2 21.10457 2.8954305 22 4 22 C 5.1045694 22 6 21.10457 6 20 C 6 18.894 5.1 18 4 18 z M 9.3339844 18 C 8.2294149 18 7.3339844 18.89543 7.3339844 20 C 7.3339844 21.10457 8.2294149 22 9.3339844 22 C 10.438553 22 11.333984 21.10457 11.333984 20 C 11.333984 18.894 10.433984 18 9.3339844 18 z M 14.666016 18 C 13.561446 18 12.666016 18.89543 12.666016 20 C 12.666016 21.10457 13.561446 22 14.666016 22 C 15.770585 22 16.666016 21.10457 16.666016 20 C 16.666016 18.894 15.766016 18 14.666016 18 z M 20 18 C 18.89543 18 18 18.89543 18 20 C 18 21.10457 18.89543 22 20 22 C 21.10457 22 22 21.10457 22 20 C 22 18.894 21.1 18 20 18 z"/></svg>
