<svg xmlns="http://www.w3.org/2000/svg" viewBox="0 0 100 100"><circle cx="50" cy="50" r="48" fill="black"/><circle cx="60.0" cy="50.0" r="3" fill="white"/><circle cx="57.071067811865476" cy="57.071067811865476" r="3" fill="white"/><circle cx="50.0" cy="60.0" r="3" fill="white"/><circle cx="42.928932188134524" cy="57.071067811865476" r="3" fill="white"/><circle cx="40.0" cy="50.0" r="3" fill="white"/><circle cx="42.928932188134524" cy="42.928932188134524" r="3" fill="white"/><circle cx="50.0" cy="40.0" r="3" fill="white"/><circle cx="57.071067811865476" cy="42.928932188134524" r="3" fill="white"/><circle cx="72.0" cy="50.0" r="3" fill="white"/><circle cx="65.55634918610404" cy="65.55634918610404" r="3" fill="white"/><circle cx="50.0" cy="72.0" r="3" fill="white"/><circle cx="34.44365081389596" cy="65.55634918610404" r="3" fill="white"/><circle cx="28.0" cy="50.0" r="3" fill="white"/><circle cx="34.44365081389595" cy="34.44365081389596" r="3" fill="white"/><circle cx="49.99999999999999" cy="28.0" r="3" fill="white"/><circle cx="65.55634918610404" cy="34.44365081389595" r="3" fill="white"/><circle cx="84.0" cy="50.0" r="4.5" fill="white"/><circle cx="74.04163056034261" cy="74.04163056034261" r="4.5" fill="white"/><circle cx="50.0" cy="84.0" r="4.5" fill="white"/><circle cx="25.958369439657385" cy="74.04163056034261" r="4.5" fill="white"/><circle cx="16.0" cy="50.00000000000001" r="4.5" fill="white"/><circle cx="25.95836943965738" cy="25.958369439657385" r="4.5" fill="white"/><circle cx="49.99999999999999" cy="16.0" r="4.5" fill="white"/><circle cx="74.04163056034261" cy="25.95836943965738" r="4.5" fill="white"/></svg>