<svg xmlns="http://www.w3.org/2000/svg" version="1.1" width="24" height="24" viewBox="0 0 24 24"><path d="m12.092 2.5176c-2.4547 0-4.5462 1.5003-5.4553 3.6367a4.5455 4.5455 0 0 0 -4.5449 4.5447 4.5455 4.5455 0 0 0 4.5449 4.547h1.3301c-.2887-.562-0.47-1.175-.4844-1.818h-.8457a2.7273 2.7273 0 0 1 -2.7285 -2.729 2.7273 2.7273 0 0 1 2.7285 -2.7263c.3364 0 .6629.0627.9629.1718.3546-2.1545 2.2195-3.8086 4.4924-3.8086a4.5455 4.5455 0 0 1 4.322 3.1485c.136-.0085.271-.0116.408-.0059.443.0386.808.0963 1.133.1641-0.4-2.8912-2.868-5.125-5.863-5.125zm8.037 5.8691l-.910 1.5762a1.8182 1.8182 0 0 1 1.054 1.6461 1.8182 1.8182 0 0 1 -.359 1.08c.550.265 1.041.637 1.449 1.094a3.6364 3.6364 0 0 0 .729 -2.174 3.6364 3.6364 0 0 0 -1.963 -3.2223zm-3.617.1016c-1.125.0828-2.197.6971-2.793 1.7307-.955 1.653-.372 3.826 1.281 4.781l3.5-6.0625c-.620-.3580-1.314-.4989-1.988-.4492zm-1.512 6.5117l6.062 3.5c.955-1.653.373-3.827-1.281-4.781-1.653-.955-3.826-.372-4.781 1.281zl-3.5 6.062c1.653.955 3.827.373 4.781-1.281.955-1.653.372-3.826-1.281-4.781zl-6.0625-3.5c-.9545 1.653-.3721 3.827 1.2815 4.781 1.653.955 3.826.372 4.781-1.281z"/></svg>
