<svg xmlns="http://www.w3.org/2000/svg" width="800" height="500"><defs><style type="text/css"><![CDATA[ 
    .axis path,
    .axis line,
    .legend rect {
      fill: none;
      stroke: #ccc;
      stroke-width: 1px;
    }

    /* hide the zero tick mark */
    .y-axis .tick:first-of-type text {
      opacity: 0;
    }

    /* highlight January tick marks */
    .x-axis .tick:not(:nth-of-type(12n+1)) text {
      opacity: 0.5;
    }

    /* hide every second month tick mark */
    .x-axis .tick:nth-of-type(2n) text {
      opacity: 0;
    }

    .num-fixtures {
      fill: none;
      stroke: #2196f3;
      stroke-width: 2px;
    }

    .legend rect {
      fill: #fff;
    }
   ]]></style></defs><g transform="translate(50, 20)"><g class="axis x-axis" transform="translate(0, 450)" fill="none" font-size="10" font-family="sans-serif" text-anchor="middle"><path class="domain" stroke="currentColor" d="M0.5,0.5H730.5"></path><g class="tick" opacity="1" transform="translate(0.5,0)"><line stroke="currentColor" y2="-450"></line><text fill="currentColor" y="3" dy="0.71em">01/17</text></g><g class="tick" opacity="1" transform="translate(12.705766680899835,0)"><line stroke="currentColor" y2="-450"></line><text fill="currentColor" y="3" dy="0.71em">02/17</text></g><g class="tick" opacity="1" transform="translate(23.730330134615816,0)"><line stroke="currentColor" y2="-450"></line><text fill="currentColor" y="3" dy="0.71em">03/17</text></g><g class="tick" opacity="1" transform="translate(35.919691215138094,0)"><line stroke="currentColor" y2="-450"></line><text fill="currentColor" y="3" dy="0.71em">04/17</text></g><g class="tick" opacity="1" transform="translate(47.73172348697665,0)"><line stroke="currentColor" y2="-450"></line><text fill="currentColor" y="3" dy="0.71em">05/17</text></g><g class="tick" opacity="1" transform="translate(59.93749016787649,0)"><line stroke="currentColor" y2="-450"></line><text fill="currentColor" y="3" dy="0.71em">06/17</text></g><g class="tick" opacity="1" transform="translate(71.74952243971504,0)"><line stroke="currentColor" y2="-450"></line><text fill="currentColor" y="3" dy="0.71em">07/17</text></g><g class="tick" opacity="1" transform="translate(83.95528912061488,0)"><line stroke="currentColor" y2="-450"></line><text fill="currentColor" y="3" dy="0.71em">08/17</text></g><g class="tick" opacity="1" transform="translate(96.16105580151472,0)"><line stroke="currentColor" y2="-450"></line><text fill="currentColor" y="3" dy="0.71em">09/17</text></g><g class="tick" opacity="1" transform="translate(107.97308807335325,0)"><line stroke="currentColor" y2="-450"></line><text fill="currentColor" y="3" dy="0.71em">10/17</text></g><g class="tick" opacity="1" transform="translate(120.19526035463065,0)"><line stroke="currentColor" y2="-450"></line><text fill="currentColor" y="3" dy="0.71em">11/17</text></g><g class="tick" opacity="1" transform="translate(132.0072926264692,0)"><line stroke="currentColor" y2="-450"></line><text fill="currentColor" y="3" dy="0.71em">12/17</text></g><g class="tick" opacity="1" transform="translate(144.21305930736904,0)"><line stroke="currentColor" y2="-450"></line><text fill="currentColor" y="3" dy="0.71em">01/18</text></g><g class="tick" opacity="1" transform="translate(156.41882598826888,0)"><line stroke="currentColor" y2="-450"></line><text fill="currentColor" y="3" dy="0.71em">02/18</text></g><g class="tick" opacity="1" transform="translate(167.44338944198486,0)"><line stroke="currentColor" y2="-450"></line><text fill="currentColor" y="3" dy="0.71em">03/18</text></g><g class="tick" opacity="1" transform="translate(179.63275052250714,0)"><line stroke="currentColor" y2="-450"></line><text fill="currentColor" y="3" dy="0.71em">04/18</text></g><g class="tick" opacity="1" transform="translate(191.44478279434568,0)"><line stroke="currentColor" y2="-450"></line><text fill="currentColor" y="3" dy="0.71em">05/18</text></g><g class="tick" opacity="1" transform="translate(203.65054947524553,0)"><line stroke="currentColor" y2="-450"></line><text fill="currentColor" y="3" dy="0.71em">06/18</text></g><g class="tick" opacity="1" transform="translate(215.46258174708407,0)"><line stroke="currentColor" y2="-450"></line><text fill="currentColor" y="3" dy="0.71em">07/18</text></g><g class="tick" opacity="1" transform="translate(227.6683484279839,0)"><line stroke="currentColor" y2="-450"></line><text fill="currentColor" y="3" dy="0.71em">08/18</text></g><g class="tick" opacity="1" transform="translate(239.87411510888376,0)"><line stroke="currentColor" y2="-450"></line><text fill="currentColor" y="3" dy="0.71em">09/18</text></g><g class="tick" opacity="1" transform="translate(251.6861473807223,0)"><line stroke="currentColor" y2="-450"></line><text fill="currentColor" y="3" dy="0.71em">10/18</text></g><g class="tick" opacity="1" transform="translate(263.90831966199966,0)"><line stroke="currentColor" y2="-450"></line><text fill="currentColor" y="3" dy="0.71em">11/18</text></g><g class="tick" opacity="1" transform="translate(275.72035193383823,0)"><line stroke="currentColor" y2="-450"></line><text fill="currentColor" y="3" dy="0.71em">12/18</text></g><g class="tick" opacity="1" transform="translate(287.9261186147381,0)"><line stroke="currentColor" y2="-450"></line><text fill="currentColor" y="3" dy="0.71em">01/19</text></g><g class="tick" opacity="1" transform="translate(300.1318852956379,0)"><line stroke="currentColor" y2="-450"></line><text fill="currentColor" y="3" dy="0.71em">02/19</text></g><g class="tick" opacity="1" transform="translate(311.15644874935384,0)"><line stroke="currentColor" y2="-450"></line><text fill="currentColor" y="3" dy="0.71em">03/19</text></g><g class="tick" opacity="1" transform="translate(323.34580982987615,0)"><line stroke="currentColor" y2="-450"></line><text fill="currentColor" y="3" dy="0.71em">04/19</text></g><g class="tick" opacity="1" transform="translate(335.1578421017147,0)"><line stroke="currentColor" y2="-450"></line><text fill="currentColor" y="3" dy="0.71em">05/19</text></g><g class="tick" opacity="1" transform="translate(347.36360878261456,0)"><line stroke="currentColor" y2="-450"></line><text fill="currentColor" y="3" dy="0.71em">06/19</text></g><g class="tick" opacity="1" transform="translate(359.1756410544531,0)"><line stroke="currentColor" y2="-450"></line><text fill="currentColor" y="3" dy="0.71em">07/19</text></g><g class="tick" opacity="1" transform="translate(371.381407735353,0)"><line stroke="currentColor" y2="-450"></line><text fill="currentColor" y="3" dy="0.71em">08/19</text></g><g class="tick" opacity="1" transform="translate(383.58717441625276,0)"><line stroke="currentColor" y2="-450"></line><text fill="currentColor" y="3" dy="0.71em">09/19</text></g><g class="tick" opacity="1" transform="translate(395.39920668809134,0)"><line stroke="currentColor" y2="-450"></line><text fill="currentColor" y="3" dy="0.71em">10/19</text></g><g class="tick" opacity="1" transform="translate(407.6213789693687,0)"><line stroke="currentColor" y2="-450"></line><text fill="currentColor" y="3" dy="0.71em">11/19</text></g><g class="tick" opacity="1" transform="translate(419.4334112412073,0)"><line stroke="currentColor" y2="-450"></line><text fill="currentColor" y="3" dy="0.71em">12/19</text></g><g class="tick" opacity="1" transform="translate(431.6391779221071,0)"><line stroke="currentColor" y2="-450"></line><text fill="currentColor" y="3" dy="0.71em">01/20</text></g><g class="tick" opacity="1" transform="translate(443.8449446030069,0)"><line stroke="currentColor" y2="-450"></line><text fill="currentColor" y="3" dy="0.71em">02/20</text></g><g class="tick" opacity="1" transform="translate(455.2632424657842,0)"><line stroke="currentColor" y2="-450"></line><text fill="currentColor" y="3" dy="0.71em">03/20</text></g><g class="tick" opacity="1" transform="translate(467.4526035463065,0)"><line stroke="currentColor" y2="-450"></line><text fill="currentColor" y="3" dy="0.71em">04/20</text></g><g class="tick" opacity="1" transform="translate(479.26463581814505,0)"><line stroke="currentColor" y2="-450"></line><text fill="currentColor" y="3" dy="0.71em">05/20</text></g><g class="tick" opacity="1" transform="translate(491.47040249904484,0)"><line stroke="currentColor" y2="-450"></line><text fill="currentColor" y="3" dy="0.71em">06/20</text></g><g class="tick" opacity="1" transform="translate(503.2824347708834,0)"><line stroke="currentColor" y2="-450"></line><text fill="currentColor" y="3" dy="0.71em">07/20</text></g><g class="tick" opacity="1" transform="translate(515.4882014517833,0)"><line stroke="currentColor" y2="-450"></line><text fill="currentColor" y="3" dy="0.71em">08/20</text></g><g class="tick" opacity="1" transform="translate(527.693968132683,0)"><line stroke="currentColor" y2="-450"></line><text fill="currentColor" y="3" dy="0.71em">09/20</text></g><g class="tick" opacity="1" transform="translate(539.5060004045216,0)"><line stroke="currentColor" y2="-450"></line><text fill="currentColor" y="3" dy="0.71em">10/20</text></g><g class="tick" opacity="1" transform="translate(551.728172685799,0)"><line stroke="currentColor" y2="-450"></line><text fill="currentColor" y="3" dy="0.71em">11/20</text></g><g class="tick" opacity="1" transform="translate(563.5402049576376,0)"><line stroke="currentColor" y2="-450"></line><text fill="currentColor" y="3" dy="0.71em">12/20</text></g><g class="tick" opacity="1" transform="translate(575.7459716385374,0)"><line stroke="currentColor" y2="-450"></line><text fill="currentColor" y="3" dy="0.71em">01/21</text></g><g class="tick" opacity="1" transform="translate(587.9517383194373,0)"><line stroke="currentColor" y2="-450"></line><text fill="currentColor" y="3" dy="0.71em">02/21</text></g><g class="tick" opacity="1" transform="translate(598.9763017731532,0)"><line stroke="currentColor" y2="-450"></line><text fill="currentColor" y="3" dy="0.71em">03/21</text></g><g class="tick" opacity="1" transform="translate(611.1656628536755,0)"><line stroke="currentColor" y2="-450"></line><text fill="currentColor" y="3" dy="0.71em">04/21</text></g><g class="tick" opacity="1" transform="translate(622.9776951255141,0)"><line stroke="currentColor" y2="-450"></line><text fill="currentColor" y="3" dy="0.71em">05/21</text></g><g class="tick" opacity="1" transform="translate(635.1834618064139,0)"><line stroke="currentColor" y2="-450"></line><text fill="currentColor" y="3" dy="0.71em">06/21</text></g><g class="tick" opacity="1" transform="translate(646.9954940782525,0)"><line stroke="currentColor" y2="-450"></line><text fill="currentColor" y="3" dy="0.71em">07/21</text></g><g class="tick" opacity="1" transform="translate(659.2012607591523,0)"><line stroke="currentColor" y2="-450"></line><text fill="currentColor" y="3" dy="0.71em">08/21</text></g><g class="tick" opacity="1" transform="translate(671.4070274400522,0)"><line stroke="currentColor" y2="-450"></line><text fill="currentColor" y="3" dy="0.71em">09/21</text></g><g class="tick" opacity="1" transform="translate(683.2190597118907,0)"><line stroke="currentColor" y2="-450"></line><text fill="currentColor" y="3" dy="0.71em">10/21</text></g><g class="tick" opacity="1" transform="translate(695.4412319931681,0)"><line stroke="currentColor" y2="-450"></line><text fill="currentColor" y="3" dy="0.71em">11/21</text></g><g class="tick" opacity="1" transform="translate(707.2532642650067,0)"><line stroke="currentColor" y2="-450"></line><text fill="currentColor" y="3" dy="0.71em">12/21</text></g><g class="tick" opacity="1" transform="translate(719.4590309459064,0)"><line stroke="currentColor" y2="-450"></line><text fill="currentColor" y="3" dy="0.71em">01/22</text></g></g><g class="axis y-axis" fill="none" font-size="10" font-family="sans-serif" text-anchor="end"><path class="domain" stroke="currentColor" d="M0.5,450.5V0.5"></path><g class="tick" opacity="1" transform="translate(0,450.5)"><line stroke="currentColor" x2="730"></line><text fill="currentColor" x="-3" dy="0.32em">0</text></g><g class="tick" opacity="1" transform="translate(0,403.527139874739)"><line stroke="currentColor" x2="730"></line><text fill="currentColor" x="-3" dy="0.32em">50</text></g><g class="tick" opacity="1" transform="translate(0,356.5542797494781)"><line stroke="currentColor" x2="730"></line><text fill="currentColor" x="-3" dy="0.32em">100</text></g><g class="tick" opacity="1" transform="translate(0,309.5814196242171)"><line stroke="currentColor" x2="730"></line><text fill="currentColor" x="-3" dy="0.32em">150</text></g><g class="tick" opacity="1" transform="translate(0,262.60855949895614)"><line stroke="currentColor" x2="730"></line><text fill="currentColor" x="-3" dy="0.32em">200</text></g><g class="tick" opacity="1" transform="translate(0,215.6356993736952)"><line stroke="currentColor" x2="730"></line><text fill="currentColor" x="-3" dy="0.32em">250</text></g><g class="tick" opacity="1" transform="translate(0,168.66283924843424)"><line stroke="currentColor" x2="730"></line><text fill="currentColor" x="-3" dy="0.32em">300</text></g><g class="tick" opacity="1" transform="translate(0,121.68997912317326)"><line stroke="currentColor" x2="730"></line><text fill="currentColor" x="-3" dy="0.32em">350</text></g><g class="tick" opacity="1" transform="translate(0,74.71711899791232)"><line stroke="currentColor" x2="730"></line><text fill="currentColor" x="-3" dy="0.32em">400</text></g><g class="tick" opacity="1" transform="translate(0,27.74425887265134)"><line stroke="currentColor" x2="730"></line><text fill="currentColor" x="-3" dy="0.32em">450</text></g></g><path class="num-fixtures" d="M7.497359372541968,449.0605427974948L7.497359372541968,448.12108559498955L7.497359372541968,447.18162839248436L7.497359372541968,446.2421711899791L7.497359372541968,445.3027139874739L8.678562599725824,444.36325678496866L9.072297008787109,443.42379958246346L21.278063689686945,442.48434237995826L21.278063689686945,441.54488517745307L21.278063689686945,440.60542797494776L21.278063689686945,439.66597077244256L21.278063689686945,438.72651356993737L21.278063689686945,437.78705636743217L21.278063689686945,436.8475991649269L21.278063689686945,435.9081419624217L38.602377688383484,434.9686847599165L42.14598736993506,434.0292275574113L46.47706586960919,433.089770354906L51.20187877834461,432.1503131524008L53.170550823651034,431.21085594989563L55.92669168708003,430.2713987473904L55.92669168708003,429.3319415448852L56.32042609614131,428.39248434238L56.32042609614131,427.45302713987473L56.32042609614131,426.5135699373695L56.32042609614131,425.5741127348643L56.32042609614131,424.6346555323591L57.10789491426389,423.6951983298539L74.03847450389914,422.75574112734864L76.40088095826684,421.81628392484345L77.58208418545071,420.8768267223382L77.58208418545071,419.937369519833L77.58208418545071,418.99791231732775L80.33822504887969,418.05845511482255L83.48810032136998,417.11899791231735L84.27556913949255,416.1795407098121L84.27556913949255,415.24008350730685L85.06303795761512,414.30062630480165L85.4567723666764,413.36116910229646L85.8505067757377,412.4217118997912L85.8505067757377,411.482254697286L85.8505067757377,410.5427974947808L86.24424118479898,409.6033402922756L86.24424118479898,408.6638830897703L86.24424118479898,407.7244258872651L86.63797559386026,406.7849686847599L89.39411645728926,405.8455114822547L92.54399172977953,404.90605427974947L96.87507022945367,403.9665970772443L96.87507022945367,403.027139874739L98.05627345663753,402.0876826722338L98.05627345663753,401.1482254697286L98.45000786569882,400.2087682672234L98.45000786569882,399.2693110647182L98.8437422747601,398.329853862213L99.63121109288267,397.39039665970773L99.63121109288267,396.4509394572025L99.63121109288267,395.5114822546973L102.78108636537296,394.57202505219203L102.78108636537296,393.63256784968684L102.78108636537296,392.69311064718164L111.83697777378251,391.75365344467644L112.23071218284379,390.81419624217114L113.41191541002765,389.87473903966594L118.13672831876306,388.93528183716074L125.61768209092747,387.99582463465555L125.61768209092747,387.0563674321503L126.01141649998877,386.1169102296451L126.01141649998877,385.1774530271399L127.5863541362339,384.2379958246347L131.12996381778547,383.2985386221294L133.88610468121448,382.3590814196242L133.88610468121448,381.419624217119L133.88610468121448,380.4801670146138L135.8547767265209,379.54070981210856L135.8547767265209,378.6012526096033L135.8547767265209,377.6617954070981L136.64224554464346,376.7223382045929L139.39838640807244,375.78288100208766L140.9733240443176,374.84342379958247L142.15452727150145,373.9039665970773L143.3357304986853,372.964509394572L143.72946490774657,372.0250521920668L143.72946490774657,371.08559498956157L143.72946490774657,370.1461377870564L145.30440254399173,369.2066805845511L146.48560577117559,368.2672233820459L150.42294986178845,367.32776617954073L152.78535631615614,366.3883089770355L153.17909072521743,365.4488517745302L155.14776277052385,364.50939457202503L155.14776277052385,363.56993736951983L155.14776277052385,362.63048016701464L156.3289659977077,361.6910229645094L156.3289659977077,360.7515657620042L156.3289659977077,359.812108559499L156.722700406769,358.87265135699374L156.722700406769,357.9331941544885L157.11643481583027,356.9937369519833L157.51016922489157,356.0542797494781L157.90390363395284,355.11482254697285L157.90390363395284,354.17536534446765L157.90390363395284,353.2359081419624L158.6913724520754,352.2964509394572L160.66004449738185,351.35699373695195L160.66004449738185,350.41753653444675L160.66004449738185,349.47807933194156L161.4475133155044,348.53862212943636L161.4475133155044,347.5991649269311L162.62871654268827,346.6597077244259L163.02245095174953,345.72025052192066L170.50340472391397,344.78079331941547L172.4720767692204,343.8413361169102L172.4720767692204,342.901878914405L177.19688967795582,341.9624217118998L177.59062408701712,341.02296450939457L177.98435849607839,340.0835073068893L178.37809290513968,339.1440501043841L178.37809290513968,338.2045929018789L180.3467649504461,337.2651356993737L180.3467649504461,336.3256784968685L182.31543699575252,335.3862212943633L187.43398431354922,334.4467640918581L187.8277187226105,333.50730688935283L200.82095422163295,332.5678496868476L201.6084230397555,331.6283924843424L202.39589185787807,330.6889352818372L202.39589185787807,329.74947807933194L207.90817358473603,328.8100208768267L207.90817358473603,327.8705636743215L207.90817358473603,326.9311064718163L208.30190799379733,325.99164926931104L208.30190799379733,325.05219206680584L209.08937681191992,324.11273486430065L214.99539294783918,323.1732776617954L221.29514349281973,322.2338204592902L222.08261231094232,321.294363256785L222.87008112906489,320.3549060542798L224.8387531743713,319.4154488517745L224.8387531743713,318.4759916492693L228.77609726498417,317.5365344467641L229.16983167404544,316.59707724425886L230.7447693102906,315.6576200417536L234.6821134009034,314.7181628392484L241.37559835494528,313.7787056367432L243.34427040025167,312.839248434238L243.73800480931297,311.89979123173276L244.1317392183743,310.96033402922757L244.5254736274356,310.0208768267224L244.5254736274356,309.0814196242171L244.5254736274356,308.1419624217119L245.70667685461942,307.20250521920667L247.67534889992584,306.2630480167015L248.4628177180484,305.3235908141962L248.8565521271097,304.38413361169097L253.18763062678386,303.4446764091858L254.76256826302898,302.5052192066806L255.55003708115154,301.5657620041753L257.1249747173967,300.62630480167013L257.51870912645796,299.68684759916493L260.27484998988695,298.74739039665974L260.6685843989482,297.8079331941545L263.42472526237725,296.8684759916493L263.42472526237725,295.9290187891441L263.8184596714385,294.98956158663884L263.8184596714385,294.0501043841336L263.8184596714385,293.1106471816284L263.8184596714385,292.17118997912314L265.78713171674497,291.23173277661795L266.18086612580623,290.2922755741127L266.18086612580623,289.3528183716075L266.5746005348675,288.4133611691023L267.3620693529901,287.47390396659705L267.3620693529901,286.53444676409185L267.3620693529901,285.59498956158666L267.3620693529901,284.65553235908146L268.1495381711126,283.7160751565762L272.0868822617255,282.77661795407096L273.2680854889094,281.83716075156576L273.66181989797064,280.89770354906057L273.66181989797064,279.9582463465553L274.0555543070319,279.01878914405006L274.0555543070319,278.07933194154487L276.4179607613996,277.13987473903967L277.99289839764475,276.2004175365344L278.78036721576734,275.2609603340292L278.78036721576734,274.321503131524L279.17410162482867,273.38204592901883L279.17410162482867,272.4425887265136L279.56783603388993,271.5031315240084L279.56783603388993,270.5636743215032L282.3239768973189,269.62421711899793L287.8362586241769,268.6847599164927L287.8362586241769,267.7453027139875L287.8362586241769,266.80584551148223L287.8362586241769,265.86638830897704L287.8362586241769,264.9269311064718L287.8362586241769,263.9874739039666L287.8362586241769,263.0480167014614L287.8362586241769,262.10855949895614L289.0174618513608,261.16910229645094L289.0174618513608,260.22964509394575L290.19866507854465,259.29018789144055L292.5610715329123,258.3507306889353L292.95480594197363,257.41127348643005L292.95480594197363,256.47181628392485L293.3485403510349,255.53235908141963L295.3172123963413,254.59290187891438L295.3172123963413,253.65344467640915L301.6169629413219,252.71398747390396L301.6169629413219,251.77453027139873L301.6169629413219,250.8350730688935L302.40443175944444,249.8956158663883L302.40443175944444,248.9561586638831L302.40443175944444,248.0167014613779L302.40443175944444,247.07724425887267L305.1605726228734,246.13778705636747L305.55430703193474,245.1983298538622L306.34177585005733,244.258872651357L307.5229790772412,243.31941544885177L307.5229790772412,242.37995824634658L309.88538553160885,241.4405010438413L309.88538553160885,240.5010438413361L309.88538553160885,239.56158663883087L311.0665887587927,238.62212943632568L311.460323167854,237.68267223382045L311.8540575769153,236.74321503131526L311.8540575769153,235.80375782881003L311.8540575769153,234.8643006263048L312.64152639503783,233.92484342379962L312.64152639503783,232.9853862212944L312.64152639503783,232.04592901878914L312.64152639503783,231.10647181628391L312.64152639503783,230.16701461377872L313.03526080409915,229.22755741127347L315.79140166752813,228.28810020876824L315.79140166752813,227.34864300626302L316.5788704856507,226.40918580375782L316.5788704856507,225.4697286012526L317.7600737128346,224.5302713987474L318.94127694001844,223.59081419624218L321.6974178034474,222.65135699373698L321.6974178034474,221.7118997912317L321.6974178034474,220.7724425887265L323.2723554396926,219.83298538622128L323.2723554396926,218.89352818371609L323.2723554396926,217.95407098121086L324.4535586668764,217.01461377870564L324.8472930759377,216.07515657620044L325.241027484999,215.1356993736952L325.241027484999,214.19624217118997L325.241027484999,213.25678496868474L325.241027484999,212.31732776617955L325.241027484999,211.37787056367432L325.241027484999,210.43841336116913L325.241027484999,209.4989561586639L326.0284963031216,208.55949895615865L328.39090275748924,207.62004175365342L328.39090275748924,206.68058455114823L328.39090275748924,205.741127348643L328.39090275748924,204.8016701461378L328.39090275748924,203.86221294363258L331.9345124390409,202.92275574112733L335.4781221205924,201.9832985386221L335.8718565296537,201.0438413361169L335.8718565296537,200.1043841336117L337.44679416589884,199.1649269311065L337.44679416589884,198.22546972860127L339.4154662112052,197.28601252609604L339.8092006202665,196.3465553235908L340.2029350293278,195.40709812108557L340.9904038474504,194.46764091858037L340.9904038474504,193.52818371607515L342.56534148369553,192.58872651356995L346.1089511652471,191.64926931106473L346.1089511652471,190.70981210855953L346.1089511652471,189.77035490605425L347.68388880149223,188.83089770354906L349.6525608467987,187.89144050104383L349.6525608467987,186.95198329853864L349.6525608467987,186.0125260960334L353.19617052835025,185.07306889352822L355.5585769827179,184.13361169102294L361.8583275276985,183.19415448851774L362.64579634582105,182.25469728601252L362.64579634582105,181.31524008350732L362.64579634582105,180.3757828810021L362.64579634582105,179.43632567849687L362.64579634582105,178.49686847599168L363.43326516394364,177.55741127348642L365.40193720925004,176.6179540709812L365.40193720925004,175.67849686847597L366.1894060273726,174.73903966597078L366.97687484549516,173.79958246346555L366.97687484549516,172.86012526096036L366.97687484549516,171.92066805845513L366.97687484549516,170.98121085594988L366.97687484549516,170.04175365344466L366.97687484549516,169.10229645093946L366.97687484549516,168.16283924843424L366.97687484549516,167.22338204592904L366.97687484549516,166.28392484342382L366.97687484549516,165.34446764091857L366.97687484549516,164.40501043841334L366.97687484549516,163.46555323590815L367.76434366361775,162.52609603340292L367.76434366361775,161.5866388308977L368.5518124817403,160.6471816283925L368.5518124817403,159.70772442588728L369.7330157089242,158.76826722338203L370.5204845270468,157.8288100208768L370.5204845270468,156.8893528183716L370.5204845270468,155.94989561586638L373.67035979953704,155.0104384133612L378.78890711733374,154.07098121085596L378.78890711733374,153.13152400835077L378.78890711733374,152.19206680584549L378.78890711733374,151.2526096033403L378.78890711733374,150.31315240083507L378.78890711733374,149.37369519832987L379.182641526395,148.43423799582465L379.182641526395,147.49478079331942L380.75757916264024,146.55532359081417L380.75757916264024,145.61586638830897L380.75757916264024,144.67640918580375L380.75757916264024,143.73695198329852L380.75757916264024,142.79749478079333L380.75757916264024,141.8580375782881L386.2698608894982,140.9185803757829L386.6635952985594,139.97912317327763L386.6635952985594,139.03966597077243L390.9946737982336,138.1002087682672L390.9946737982336,137.160751565762L392.1758770254175,136.2212943632568L394.9320178888464,135.2818371607516L395.32575229790774,134.3423799582463L395.32575229790774,133.40292275574112L395.32575229790774,132.4634655532359L396.90068993415287,131.5240083507307L396.90068993415287,130.58455114822547L396.90068993415287,129.64509394572028L397.68815875227546,128.70563674321505L399.6568307975819,127.76617954070979L400.44429961570444,126.82672233820458L400.8380340247657,125.88726513569937L402.80670607007215,124.94780793319416L402.80670607007215,124.00835073068895L404.77537811537854,123.06889352818374L406.3503157516237,122.12943632567853L406.3503157516237,121.18997912317326L406.3503157516237,120.25052192066805L406.3503157516237,119.31106471816284L406.3503157516237,118.37160751565763L406.3503157516237,117.4321503131524L406.744050160685,116.4926931106472L406.744050160685,115.55323590814194L407.1377845697463,114.61377870563673L407.1377845697463,113.67432150313151L407.1377845697463,112.7348643006263L407.1377845697463,111.79540709812109L408.71272220599144,110.85594989561588L409.1064566150527,109.91649269311067L415.012472750972,108.9770354906054L417.37487920533965,108.03757828810019L417.37487920533965,107.09812108559498L417.37487920533965,106.15866388308977L418.16234802346224,105.21920668058456L422.4934265231364,104.27974947807935L423.67462975032026,103.34029227557414L423.67462975032026,102.40083507306888L423.67462975032026,101.46137787056367L427.2182394318718,100.52192066805846L427.6119738409331,99.58246346555325L427.6119738409331,98.64300626304802L427.6119738409331,97.70354906054281L427.6119738409331,96.76409185803756L436.2741308402814,95.82463465553234L436.2741308402814,94.88517745302713L439.81774052183295,93.94572025052192L447.29869429399736,93.0062630480167L448.8736319302425,92.0668058455115L448.8736319302425,91.12734864300629L449.26736633930375,90.18789144050102L449.26736633930375,89.24843423799581L449.26736633930375,88.3089770354906L449.26736633930375,87.36951983298539L450.4485695664876,86.43006263048018L450.4485695664876,85.49060542797497L450.4485695664876,84.55114822546975L463.83553947457136,83.6116910229645L463.83553947457136,82.67223382045928L465.4104771108165,81.73277661795407L465.4104771108165,80.79331941544885L465.4104771108165,79.85386221294364L465.4104771108165,78.91440501043843L465.4104771108165,77.97494780793318L465.8042115198777,77.03549060542795L465.8042115198777,76.09603340292274L465.8042115198777,75.15657620041753L465.8042115198777,74.21711899791232L466.197945928939,73.27766179540711L467.77288356518415,72.3382045929019L473.2851652920421,71.39874739039664L473.2851652920421,70.45929018789143L473.2851652920421,69.51983298538622L473.67889970110343,68.580375782881L508.7212621075578,67.6409185803758L510.2961997438029,66.70146137787059L534.7077331056026,65.76200417536536L534.7077331056026,64.82254697286011L534.7077331056026,63.88308977035489L535.1014675146639,62.94363256784968L535.1014675146639,62.00417536534447L535.1014675146639,61.06471816283926L537.8576083780929,60.125260960334046L539.0388116052768,59.185803757828786L539.0388116052768,58.246346555323576L539.0388116052768,57.30688935281837L539.0388116052768,56.36743215031315L539.0388116052768,55.42797494780794L539.4325460143381,54.48851774530273L539.4325460143381,53.54906054279752L539.4325460143381,52.60960334029225L561.0879385127088,51.67014613778704L561.4816729217699,50.73068893528183L567.3876890576893,49.79123173277662L579.1997213295278,48.851774530271406L579.1997213295278,47.912317327766196L579.5934557385891,46.972860125260986L581.1683933748343,46.03340292275572L581.1683933748343,45.09394572025051L581.1683933748343,44.1544885177453L581.5621277838956,43.21503131524009L581.5621277838956,42.27557411273487L581.5621277838956,41.33611691022966L581.5621277838956,40.3966597077244L581.5621277838956,39.45720250521919L581.5621277838956,38.517745302713976L581.5621277838956,37.578288100208766L581.5621277838956,36.638830897703556L581.5621277838956,35.69937369519835L581.5621277838956,34.75991649269313L594.1616288738567,33.82045929018787L594.1616288738567,32.88100208768266L594.9490976919792,31.941544885177446L594.9490976919792,31.002087682672236L594.9490976919792,30.062630480167023L594.9490976919792,29.123173277661813L594.9490976919792,28.1837160751566L594.9490976919792,27.24425887265134L594.9490976919792,26.304801670146126L620.5418342809628,25.365344467640917L620.5418342809628,24.425887265135703L620.5418342809628,23.486430062630493L641.0160235521496,22.54697286012528L641.0160235521496,21.60751565762002L643.7721644155786,20.668058455114807L648.496977324314,19.728601252609597L649.6781805514978,18.789144050104383L652.8280558239882,17.849686847599173L652.8280558239882,16.91022964509396L659.9152751870913,15.970772442588748L660.3090095961526,15.031315240083487L660.3090095961526,14.091858037578275L666.2150257320718,13.152400835073063L666.2150257320718,12.212943632567852L676.0583859586039,11.27348643006264L676.0583859586039,10.334029227557428L676.0583859586039,9.394572025052216L678.0270580039104,8.455114822546955L678.0270580039104,7.515657620041743L693.7764343663617,6.576200417536532L693.7764343663617,5.63674321503132L694.170168775423,4.697286012526108L707.5571386835068,3.7578288100208965L707.5571386835068,2.818371607515635L719.7629053644066,1.8789144050104234L730,0.9394572025052117L730,0"></path><g class="legend" transform="translate(20, 20)"><rect x="-10" y="-14" width="240" height="45"></rect><path class="num-fixtures" d="M 0,0 H 20"></path><text x="30" y="0" style="font-size: 14px;" alignment-baseline="middle">Number of fixtures in OFL: 479</text><text x="30" y="20" style="font-size: 12px;" alignment-baseline="middle">Last updated: 2022-02-22</text></g></g></svg>