<svg xmlns="http://www.w3.org/2000/svg" version="1.1" width="24" height="24" viewBox="0 0 24 24"><path d="M 12 2 C 6.4889971 2 2 6.4889971 2 12 C 2 17.511003 6.4889971 22 12 22 C 17.511003 22 22 17.511003 22 12 C 22 6.4889971 17.511003 2 12 2 z M 12 4 C 16.430123 4 20 7.5698774 20 12 C 20 16.430123 16.430123 20 12 20 C 7.5698774 20 4 16.430123 4 12 C 4 7.5698774 7.5698774 4 12 4 z M 7 10 A 1 1 0 0 0 6 11 A 1 1 0 0 0 7 12 A 1 1 0 0 0 8 11 A 1 1 0 0 0 7 10 z M 17 10 A 1 1 0 0 0 16 11 A 1 1 0 0 0 17 12 A 1 1 0 0 0 18 11 A 1 1 0 0 0 17 10 z M 8 14 A 1 1 0 0 0 7 15 A 1 1 0 0 0 8 16 A 1 1 0 0 0 9 15 A 1 1 0 0 0 8 14 z M 16 14 A 1 1 0 0 0 15 15 A 1 1 0 0 0 16 16 A 1 1 0 0 0 17 15 A 1 1 0 0 0 16 14 z M 12 16 A 1 1 0 0 0 11 17 A 1 1 0 0 0 12 18 A 1 1 0 0 0 13 17 A 1 1 0 0 0 12 16 z"/></svg>
