<?xml version="1.0" standalone="no"?>
<!DOCTYPE svg PUBLIC "-//W3C//DTD SVG 20010904//EN"
 "http://www.w3.org/TR/2001/REC-SVG-20010904/DTD/svg10.dtd">
<svg version="1.0" xmlns="http://www.w3.org/2000/svg"
 width="16.000000pt" height="16.000000pt" viewBox="0 0 16.000000 16.000000"
 preserveAspectRatio="xMidYMid meet">
<metadata>
Created by potrace 1.11, written by Peter Selinger 2001-2013
</metadata>
<g transform="translate(0.000000,16.000000) scale(0.002286,-0.002286)"
fill="#000000" stroke="none">
<path d="M3360 6365 l0 -365 140 0 140 0 0 365 0 365 -140 0 -140 0 0 -365z"/>
<path d="M2218 6437 c-60 -28 -108 -55 -108 -60 0 -7 286 -632 295 -645 1 -1
58 24 127 55 l125 57 -42 91 c-245 528 -258 555 -274 554 -9 0 -64 -24 -123
-52z"/>
<path d="M1072 5566 c-45 -52 -83 -98 -84 -104 -3 -8 528 -472 541 -472 9 0
174 196 173 204 -2 9 -532 466 -542 466 -4 0 -44 -42 -88 -94z"/>
<path d="M3365 5584 c-316 -19 -668 -130 -944 -298 -532 -323 -888 -859 -987
-1481 -23 -151 -23 -459 0 -610 72 -452 274 -851 592 -1169 318 -318 717 -520
1169 -592 151 -23 459 -23 610 0 452 72 851 274 1169 592 318 318 520 717 592
1169 23 151 23 459 0 610 -72 452 -274 851 -592 1169 -317 318 -727 525 -1164
590 -108 16 -339 26 -445 20z m335 -548 c774 -103 1350 -758 1350 -1536 0
-853 -697 -1550 -1550 -1550 -853 0 -1550 697 -1550 1550 0 933 827 1659 1750
1536z"/>
<path d="M2515 4480 l-100 -100 283 -283 282 -282 102 103 103 102 -280 280
c-154 154 -282 280 -285 280 -3 0 -50 -45 -105 -100z"/>
<path d="M417 4403 c-7 -12 -67 -231 -67 -245 0 -13 676 -205 686 -196 10 11
72 253 66 259 -4 3 -151 45 -327 93 -176 48 -327 89 -337 92 -9 3 -18 1 -21
-3z"/>
<path d="M676 3025 c-186 -47 -341 -87 -344 -89 -9 -10 61 -267 72 -263 6 2
163 41 349 87 224 54 337 86 334 94 -2 6 -17 66 -32 134 -16 67 -31 122 -34
121 -3 0 -159 -38 -345 -84z"/>
<path d="M1210 1843 c-151 -124 -275 -230 -275 -234 0 -4 38 -54 83 -109 57
-68 88 -98 95 -92 26 20 523 426 536 438 11 10 -1 30 -74 118 -47 58 -87 106
-88 106 -1 0 -126 -102 -277 -227z"/>
<path d="M2340 1296 c0 -2 -70 -146 -155 -320 l-154 -316 121 -61 c66 -33 121
-59 123 -57 7 8 315 629 315 636 0 4 -52 33 -115 65 -105 52 -135 64 -135 53z"/>
<path d="M3360 635 l0 -365 140 0 140 0 0 365 0 365 -140 0 -140 0 0 -365z"/>
</g>
</svg>
