<svg xmlns="http://www.w3.org/2000/svg" version="1.1" width="24" height="24" viewBox="0 0 24 24"><path d="m15 4.4996-1.9986 7.911e-4 -3.02e-4 4.8013-6.9458-4.0282c-0.9701-0.5628-2.2093-0.22818-2.7697 0.74642l-1.0139 1.7601c-0.5604 0.9747-0.22554 2.2211 0.74466 2.7844l1.5401-2.6245 1.3874-0.37174 0.74665 0.43333-0.22266 0.38565-0.006766-0.0039063-1.0153 0.10619-0.7567 0.68174-0.21205 0.99619 0.41568 0.93236 0.88125 0.50879 1.0153-0.10619 0.7567-0.68174 0.21205-0.99619-0.41568-0.93236-0.00846-0.00488 0.22266-0.38565 5.3658 3.1047-0.49707 0.86095-1.7545-1.0197-1.0142 1.7644 1.7555 1.018-0.51712 0.9035 7.0521 4.0941c0.97051 0.56252 2.2081 0.22778 2.768-0.7474l1.0122-1.7611c0.56084-0.97517 0.22925-2.2199-0.74127-2.7825l-5.985-3.4735z"/></svg>
