<svg xmlns="http://www.w3.org/2000/svg" version="1.1" width="24" height="24" viewBox="0 0 24 24"><path d="m20.5 20.5c2.16-2.19 3.5-5.19 3.5-8.5s-1.34-6.31-3.5-8.5l-1.08 1.08c1.9 1.92 3.08 4.53 3.08 7.42 0 2.9-1.18 5.5-3.08 7.42l1.08 1.08"/><path d="m4.58 19.42c-1.9-1.92-3.08-4.52-3.08-7.42 0-2.89 1.18-5.5 3.08-7.42l-1.08-1.08c-2.16 2.19-3.5 5.19-3.5 8.5s1.34 6.31 3.5 8.5z"/><path d="m15.807 17.4-3.807-2.295-3.807 2.295 1.008-4.329-3.357-2.907 4.428-0.378 1.728-4.086 1.728 4.077 4.428 0.378-3.357 2.907 1.008 4.338m-3.807-14.4c-4.977 0-9 4.05-9 9a9 9 0 0 0 9 9 9 9 0 0 0 9-9 9 9 0 0 0-9-9z" stroke-width=".9"/></svg>
