<svg xmlns="http://www.w3.org/2000/svg" version="1.1" width="24" height="24" viewBox="0 0 24 24"><path d="m4.2222 2c-.3766 0-.7265.1038-1.0373.2691l8.8151 5.2887-6.352-5.5578zm7.7778 5.5578-.927-5.5578h-2.7774zl10-2.7279v-.6077c0-.9612-.614-1.7713-1.469-2.0811zl10 1.6038v-1.6038zl9.8199 13.092c.11444-.26778.18-.56222.18-.87222v-2.9449zl6.667 14.442h1.1111c.15416 0 .30391-.0157.44922-.04558zl2.222 14.442h2.2222zl-1.111 14.442h2.2222zl-10 12.001v.21919c0 .761.38254 1.4311.96571 1.8316zl-10 6.3629v3.6367zh-10v2.0009z"/></svg>
