<svg xmlns="http://www.w3.org/2000/svg" version="1.1" width="24" height="24" viewBox="0 0 24 24"><path d="m18.045 1.773c-2.681.5299-5.239 1.3531-7.668 2.4884-2.4025 1.1227-5.1723 3.1026-6.877 6.5356l1.6972 3.6231c1.3165 0.199 2.6127.25501 3.8478 0.191v-6.6093c-.0001-2.0058 1.157-3 3.0001-3.0001 1.843-.00010 3.0001 1 3.0001 3.0001v5.1001c2.2401-1.093 4.3971-2.4551 6.3952-4.0845zm-6.0001 4.2286c-1.104 0-2 .89542-2 2v9.0002l.99802.99802h-4.998c-1.1046 0-2 .89802-2 2.002-.0001 1.104.8953 1.998 2 1.998h12c1.105 0 2-.89402 2-1.998s-.89502-2.002-2-2.002h-4.9981l.99802-.99802v-9.0003c0-1.1046-.89602-2-2-2z"/></svg>
