<svg xmlns="http://www.w3.org/2000/svg" version="1.1" width="24" height="24" viewBox="0 0 24 24"><path d="m12 3c-2.756 0-5.2093 1.2513-6.8594 3.2031l-1.6875-1.6875v4.6562h4.6562l-1.8105-1.8105c1.4214-1.7016 3.5212-2.8613 5.7012-2.8613 2.18 0 4.2798 1.1597 5.7012 2.8613l-1.8105 1.8105h4.6562v-4.6562l-1.6875 1.6875c-1.6492-1.9531-4.1028-3.2031-6.8594-3.2031zm0 5c-2.212 0-4 1.8-4 4a4 4 0 0 0 4 4 4 4 0 0 0 4-4 4 4 0 0 0-4-4zm0 1.1992 0.76758 1.8125 1.9688 0.16797-1.4922 1.293 0.44726 1.9277-1.6914-1.0195-1.6914 1.0195 0.44726-1.9238-1.4922-1.293 1.9688-0.16797 0.76758-1.8164zm-8.5469 5.6289v4.6562l1.6875-1.6875c1.6492 1.9531 4.1028 3.2031 6.8594 3.2031 2.756 0 5.2093-1.2513 6.8594-3.2031l1.6875 1.6875v-4.6562h-4.6562l1.8105 1.8105c-1.4214 1.7016-3.5212 2.8613-5.7012 2.8613-2.18 0-4.2798-1.1597-5.7012-2.8613l1.8105-1.8105h-4.6562z" stroke-width=".4"/></svg>
