<svg xmlns="http://www.w3.org/2000/svg" version="1.1" width="24" height="24" viewBox="0 0 24 24"><path d="m19.132 2.9566c-.16397-.0028-.33193.0034-.4999.0196-1.2268.11760-2.5055.932-3.3233 2.5293-.97081-.045-1.8226.0579-2.4765.49410-.776.5173-1.184 1.3959-1.326 2.3946-.102.7135-.423 1.0259-.897 1.2696-.473.2436-1.1153.3359-1.6104.3359h-.9998v1.5003h.99980c.65397 0 1.5017-.092 2.2985-.502.79684-.41 1.5257-1.2212 1.6927-2.3925.10798-.75130.32494-1.1227.67386-1.3555.34893-.23280.97081-.36850 2.0016-.25390l.56189.0625.21496-.52740c.62388-1.5378 1.5007-1.9826 2.3335-2.0624.83283-.0799 1.6657.371 1.8706.64450l.04099.0547.04899.0449c.34993.32420.79984.53890 1.2637.53710v-1.4963c-.03499.00010-.09398-.005-.23596-.13490-.582-.7038-1.538-1.1429-2.632-1.1622zm-15.632 5.0431-1.4997.0020v8l1.4997-.002c.9998 0 1.4997-.5 1.4997-1.5v-.996l1.9996.5v-4l-1.9996.5v-1.0043c0-1-.4999-1.5-1.4997-1.5zm4.4991 4.5v1.5c.062487 0 .14547.021.34173.129s.47441.292.84943.461c.64397.29 1.5823.458 2.855.25.32993.844.72586 1.618 1.4937 2.088.85883.525 1.9906.542 3.4503.158 1.0698 1.251 2.1486 1.751 3.0694 1.762 1.0198.012 1.7976-.34770 1.9416-.34770v-1.5c-.85583 0-1.3667.35370-1.9256.34770-.55789-.007-1.2188-.2-2.2256-1.547l-.31894-.424-.50590.156c-1.5187.472-2.2665.382-2.7025.115-.43491-.266-.76985-.882-1.1128-1.89l-.22296-.653-.66987.168c-1.3757.345-2.0096.175-2.5089-.05-.24985-.113-.47161-.257-.74395-.407-.2736-.149-.6280-.316-1.0654-.316z"/></svg>
